<mxfile host="app.diagrams.net" modified="2023-05-11T04:24:48.471Z" agent="Mozilla/5.0 (Windows NT 10.0; Win64; x64) AppleWebKit/537.36 (KHTML, like Gecko) Chrome/112.0.0.0 Safari/537.36" etag="h85vEzGMabywjc7inzTv" version="21.2.9" type="github">
  <diagram name="Page-1" id="gVLVxvq3mKT_RiyL1DXC">
    <mxGraphModel dx="3645" dy="637" grid="1" gridSize="10" guides="1" tooltips="1" connect="1" arrows="1" fold="1" page="1" pageScale="1" pageWidth="850" pageHeight="1100" math="0" shadow="0">
      <root>
        <mxCell id="0" />
        <mxCell id="1" parent="0" />
        <mxCell id="QKGFdT8x3-V7aGAuW7Dw-31" style="edgeStyle=orthogonalEdgeStyle;rounded=0;orthogonalLoop=1;jettySize=auto;html=1;entryX=0;entryY=0.5;entryDx=0;entryDy=0;sketch=1;curveFitting=1;jiggle=2;" edge="1" parent="1" source="QKGFdT8x3-V7aGAuW7Dw-5" target="QKGFdT8x3-V7aGAuW7Dw-18">
          <mxGeometry relative="1" as="geometry" />
        </mxCell>
        <mxCell id="QKGFdT8x3-V7aGAuW7Dw-32" value="Yes" style="edgeLabel;html=1;align=center;verticalAlign=middle;resizable=0;points=[];" vertex="1" connectable="0" parent="QKGFdT8x3-V7aGAuW7Dw-31">
          <mxGeometry x="-0.1613" y="1" relative="1" as="geometry">
            <mxPoint as="offset" />
          </mxGeometry>
        </mxCell>
        <mxCell id="QKGFdT8x3-V7aGAuW7Dw-36" style="edgeStyle=orthogonalEdgeStyle;rounded=0;orthogonalLoop=1;jettySize=auto;html=1;exitX=0.5;exitY=0;exitDx=0;exitDy=0;exitPerimeter=0;entryX=0.5;entryY=0;entryDx=0;entryDy=0;sketch=1;curveFitting=1;jiggle=2;" edge="1" parent="1" source="QKGFdT8x3-V7aGAuW7Dw-5" target="QKGFdT8x3-V7aGAuW7Dw-8">
          <mxGeometry relative="1" as="geometry">
            <Array as="points">
              <mxPoint x="-20" y="80" />
              <mxPoint x="-330" y="80" />
            </Array>
          </mxGeometry>
        </mxCell>
        <mxCell id="QKGFdT8x3-V7aGAuW7Dw-37" value="No" style="edgeLabel;html=1;align=center;verticalAlign=middle;resizable=0;points=[];" vertex="1" connectable="0" parent="QKGFdT8x3-V7aGAuW7Dw-36">
          <mxGeometry x="-0.1043" y="-1" relative="1" as="geometry">
            <mxPoint as="offset" />
          </mxGeometry>
        </mxCell>
        <mxCell id="QKGFdT8x3-V7aGAuW7Dw-5" value="IsValid (EditorOnly)" style="strokeWidth=2;html=1;shape=mxgraph.flowchart.decision;whiteSpace=wrap;sketch=1;curveFitting=1;jiggle=2;" vertex="1" parent="1">
          <mxGeometry x="-90" y="150" width="140" height="120" as="geometry" />
        </mxCell>
        <mxCell id="QKGFdT8x3-V7aGAuW7Dw-28" style="edgeStyle=orthogonalEdgeStyle;rounded=0;orthogonalLoop=1;jettySize=auto;html=1;exitX=1;exitY=0.5;exitDx=0;exitDy=0;exitPerimeter=0;entryX=0;entryY=0.5;entryDx=0;entryDy=0;sketch=1;curveFitting=1;jiggle=2;" edge="1" parent="1" source="QKGFdT8x3-V7aGAuW7Dw-6" target="QKGFdT8x3-V7aGAuW7Dw-8">
          <mxGeometry relative="1" as="geometry" />
        </mxCell>
        <mxCell id="QKGFdT8x3-V7aGAuW7Dw-6" value="Start" style="strokeWidth=2;html=1;shape=mxgraph.flowchart.start_1;whiteSpace=wrap;sketch=1;curveFitting=1;jiggle=2;" vertex="1" parent="1">
          <mxGeometry x="-680" y="180" width="100" height="60" as="geometry" />
        </mxCell>
        <mxCell id="QKGFdT8x3-V7aGAuW7Dw-30" style="edgeStyle=orthogonalEdgeStyle;rounded=0;orthogonalLoop=1;jettySize=auto;html=1;exitX=1;exitY=0.5;exitDx=0;exitDy=0;entryX=0;entryY=0.5;entryDx=0;entryDy=0;entryPerimeter=0;sketch=1;curveFitting=1;jiggle=2;" edge="1" parent="1" source="QKGFdT8x3-V7aGAuW7Dw-8" target="QKGFdT8x3-V7aGAuW7Dw-5">
          <mxGeometry relative="1" as="geometry" />
        </mxCell>
        <mxCell id="QKGFdT8x3-V7aGAuW7Dw-8" value="A: Prepare Raw Assets" style="rounded=1;whiteSpace=wrap;html=1;absoluteArcSize=1;arcSize=14;strokeWidth=2;sketch=1;curveFitting=1;jiggle=2;fillColor=#f8cecc;strokeColor=#b85450;" vertex="1" parent="1">
          <mxGeometry x="-410" y="160" width="160" height="100" as="geometry" />
        </mxCell>
        <mxCell id="QKGFdT8x3-V7aGAuW7Dw-33" style="edgeStyle=orthogonalEdgeStyle;rounded=0;orthogonalLoop=1;jettySize=auto;html=1;exitX=0.5;exitY=1;exitDx=0;exitDy=0;entryX=0.5;entryY=0;entryDx=0;entryDy=0;sketch=1;curveFitting=1;jiggle=2;" edge="1" parent="1" source="QKGFdT8x3-V7aGAuW7Dw-18" target="QKGFdT8x3-V7aGAuW7Dw-22">
          <mxGeometry relative="1" as="geometry" />
        </mxCell>
        <mxCell id="QKGFdT8x3-V7aGAuW7Dw-18" value="TA: Prepare Prefabs Begin" style="rounded=1;whiteSpace=wrap;html=1;absoluteArcSize=1;arcSize=14;strokeWidth=2;sketch=1;curveFitting=1;jiggle=2;fillColor=#fff2cc;strokeColor=#d6b656;" vertex="1" parent="1">
          <mxGeometry x="205" y="160" width="170" height="100" as="geometry" />
        </mxCell>
        <mxCell id="QKGFdT8x3-V7aGAuW7Dw-34" style="edgeStyle=orthogonalEdgeStyle;rounded=0;orthogonalLoop=1;jettySize=auto;html=1;exitX=1;exitY=0.5;exitDx=0;exitDy=0;sketch=1;curveFitting=1;jiggle=2;" edge="1" parent="1" source="QKGFdT8x3-V7aGAuW7Dw-22" target="QKGFdT8x3-V7aGAuW7Dw-29">
          <mxGeometry relative="1" as="geometry" />
        </mxCell>
        <mxCell id="QKGFdT8x3-V7aGAuW7Dw-22" value="TA: Gen Thumbnails" style="rounded=1;whiteSpace=wrap;html=1;absoluteArcSize=1;arcSize=14;strokeWidth=2;sketch=1;curveFitting=1;jiggle=2;fillColor=#fff2cc;strokeColor=#d6b656;" vertex="1" parent="1">
          <mxGeometry x="205" y="420" width="170" height="100" as="geometry" />
        </mxCell>
        <mxCell id="QKGFdT8x3-V7aGAuW7Dw-24" value="TA: Prepare Prefabs End" style="rounded=1;whiteSpace=wrap;html=1;absoluteArcSize=1;arcSize=14;strokeWidth=2;sketch=1;curveFitting=1;jiggle=2;fillColor=#fff2cc;strokeColor=#d6b656;" vertex="1" parent="1">
          <mxGeometry x="505" y="160" width="170" height="100" as="geometry" />
        </mxCell>
        <mxCell id="QKGFdT8x3-V7aGAuW7Dw-35" style="edgeStyle=orthogonalEdgeStyle;rounded=0;orthogonalLoop=1;jettySize=auto;html=1;entryX=0.5;entryY=1;entryDx=0;entryDy=0;sketch=1;curveFitting=1;jiggle=2;" edge="1" parent="1" source="QKGFdT8x3-V7aGAuW7Dw-29" target="QKGFdT8x3-V7aGAuW7Dw-24">
          <mxGeometry relative="1" as="geometry" />
        </mxCell>
        <mxCell id="QKGFdT8x3-V7aGAuW7Dw-29" value="TA: Make DataTables" style="rounded=1;whiteSpace=wrap;html=1;absoluteArcSize=1;arcSize=14;strokeWidth=2;sketch=1;curveFitting=1;jiggle=2;fillColor=#fff2cc;strokeColor=#d6b656;" vertex="1" parent="1">
          <mxGeometry x="505" y="420" width="170" height="100" as="geometry" />
        </mxCell>
        <mxCell id="QKGFdT8x3-V7aGAuW7Dw-38" value="TA: Prepare Prefabs End" style="rounded=1;whiteSpace=wrap;html=1;absoluteArcSize=1;arcSize=14;strokeWidth=2;sketch=1;curveFitting=1;jiggle=2;fillColor=#fff2cc;strokeColor=#d6b656;" vertex="1" parent="1">
          <mxGeometry x="840" y="160" width="170" height="100" as="geometry" />
        </mxCell>
      </root>
    </mxGraphModel>
  </diagram>
</mxfile>
